<?xml version="1.0" encoding="utf-8" standalone="no"?>
<!DOCTYPE svg PUBLIC "-//W3C//DTD SVG 1.1//EN"
  "http://www.w3.org/Graphics/SVG/1.1/DTD/svg11.dtd">
<svg xmlns:xlink="http://www.w3.org/1999/xlink" width="460.8pt" height="345.6pt" viewBox="0 0 460.8 345.6" xmlns="http://www.w3.org/2000/svg" version="1.1">
 <metadata>
  <rdf:RDF xmlns:dc="http://purl.org/dc/elements/1.1/" xmlns:cc="http://creativecommons.org/ns#" xmlns:rdf="http://www.w3.org/1999/02/22-rdf-syntax-ns#">
   <cc:Work>
    <dc:type rdf:resource="http://purl.org/dc/dcmitype/StillImage"/>
    <dc:date>2023-12-02T23:08:04.732388</dc:date>
    <dc:format>image/svg+xml</dc:format>
    <dc:creator>
     <cc:Agent>
      <dc:title>Matplotlib v3.8.1, https://matplotlib.org/</dc:title>
     </cc:Agent>
    </dc:creator>
   </cc:Work>
  </rdf:RDF>
 </metadata>
 <defs>
  <style type="text/css">*{stroke-linejoin: round; stroke-linecap: butt}</style>
 </defs>
 <g id="figure_1">
  <g id="patch_1">
   <path d="M 0 345.6 
L 460.8 345.6 
L 460.8 0 
L 0 0 
z
" style="fill: #ffffff"/>
  </g>
  <g id="axes_1">
   <g id="patch_2">
    <path d="M 57.6 307.584 
L 414.72 307.584 
L 414.72 41.472 
L 57.6 41.472 
z
" style="fill: #ffffff"/>
   </g>
   <g id="matplotlib.axis_1">
    <g id="xtick_1">
     <g id="line2d_1">
      <defs>
       <path id="m1a130bea1b" d="M 0 0 
L 0 3.5 
" style="stroke: #000000; stroke-width: 0.8"/>
      </defs>
      <g>
       <use xlink:href="#m1a130bea1b" x="73.832727" y="307.584" style="stroke: #000000; stroke-width: 0.8"/>
      </g>
     </g>
     <g id="text_1">
      <!-- 0 -->
      <g transform="translate(70.651477 322.182437) scale(0.1 -0.1)">
       <defs>
        <path id="DejaVuSans-30" d="M 2034 4250 
Q 1547 4250 1301 3770 
Q 1056 3291 1056 2328 
Q 1056 1369 1301 889 
Q 1547 409 2034 409 
Q 2525 409 2770 889 
Q 3016 1369 3016 2328 
Q 3016 3291 2770 3770 
Q 2525 4250 2034 4250 
z
M 2034 4750 
Q 2819 4750 3233 4129 
Q 3647 3509 3647 2328 
Q 3647 1150 3233 529 
Q 2819 -91 2034 -91 
Q 1250 -91 836 529 
Q 422 1150 422 2328 
Q 422 3509 836 4129 
Q 1250 4750 2034 4750 
z
" transform="scale(0.015625)"/>
       </defs>
       <use xlink:href="#DejaVuSans-30"/>
      </g>
     </g>
    </g>
    <g id="xtick_2">
     <g id="line2d_2">
      <g>
       <use xlink:href="#m1a130bea1b" x="138.893758" y="307.584" style="stroke: #000000; stroke-width: 0.8"/>
      </g>
     </g>
     <g id="text_2">
      <!-- 100 -->
      <g transform="translate(129.350008 322.182437) scale(0.1 -0.1)">
       <defs>
        <path id="DejaVuSans-31" d="M 794 531 
L 1825 531 
L 1825 4091 
L 703 3866 
L 703 4441 
L 1819 4666 
L 2450 4666 
L 2450 531 
L 3481 531 
L 3481 0 
L 794 0 
L 794 531 
z
" transform="scale(0.015625)"/>
       </defs>
       <use xlink:href="#DejaVuSans-31"/>
       <use xlink:href="#DejaVuSans-30" x="63.623047"/>
       <use xlink:href="#DejaVuSans-30" x="127.246094"/>
      </g>
     </g>
    </g>
    <g id="xtick_3">
     <g id="line2d_3">
      <g>
       <use xlink:href="#m1a130bea1b" x="203.95479" y="307.584" style="stroke: #000000; stroke-width: 0.8"/>
      </g>
     </g>
     <g id="text_3">
      <!-- 200 -->
      <g transform="translate(194.41104 322.182437) scale(0.1 -0.1)">
       <defs>
        <path id="DejaVuSans-32" d="M 1228 531 
L 3431 531 
L 3431 0 
L 469 0 
L 469 531 
Q 828 903 1448 1529 
Q 2069 2156 2228 2338 
Q 2531 2678 2651 2914 
Q 2772 3150 2772 3378 
Q 2772 3750 2511 3984 
Q 2250 4219 1831 4219 
Q 1534 4219 1204 4116 
Q 875 4013 500 3803 
L 500 4441 
Q 881 4594 1212 4672 
Q 1544 4750 1819 4750 
Q 2544 4750 2975 4387 
Q 3406 4025 3406 3419 
Q 3406 3131 3298 2873 
Q 3191 2616 2906 2266 
Q 2828 2175 2409 1742 
Q 1991 1309 1228 531 
z
" transform="scale(0.015625)"/>
       </defs>
       <use xlink:href="#DejaVuSans-32"/>
       <use xlink:href="#DejaVuSans-30" x="63.623047"/>
       <use xlink:href="#DejaVuSans-30" x="127.246094"/>
      </g>
     </g>
    </g>
    <g id="xtick_4">
     <g id="line2d_4">
      <g>
       <use xlink:href="#m1a130bea1b" x="269.015821" y="307.584" style="stroke: #000000; stroke-width: 0.8"/>
      </g>
     </g>
     <g id="text_4">
      <!-- 300 -->
      <g transform="translate(259.472071 322.182437) scale(0.1 -0.1)">
       <defs>
        <path id="DejaVuSans-33" d="M 2597 2516 
Q 3050 2419 3304 2112 
Q 3559 1806 3559 1356 
Q 3559 666 3084 287 
Q 2609 -91 1734 -91 
Q 1441 -91 1130 -33 
Q 819 25 488 141 
L 488 750 
Q 750 597 1062 519 
Q 1375 441 1716 441 
Q 2309 441 2620 675 
Q 2931 909 2931 1356 
Q 2931 1769 2642 2001 
Q 2353 2234 1838 2234 
L 1294 2234 
L 1294 2753 
L 1863 2753 
Q 2328 2753 2575 2939 
Q 2822 3125 2822 3475 
Q 2822 3834 2567 4026 
Q 2313 4219 1838 4219 
Q 1578 4219 1281 4162 
Q 984 4106 628 3988 
L 628 4550 
Q 988 4650 1302 4700 
Q 1616 4750 1894 4750 
Q 2613 4750 3031 4423 
Q 3450 4097 3450 3541 
Q 3450 3153 3228 2886 
Q 3006 2619 2597 2516 
z
" transform="scale(0.015625)"/>
       </defs>
       <use xlink:href="#DejaVuSans-33"/>
       <use xlink:href="#DejaVuSans-30" x="63.623047"/>
       <use xlink:href="#DejaVuSans-30" x="127.246094"/>
      </g>
     </g>
    </g>
    <g id="xtick_5">
     <g id="line2d_5">
      <g>
       <use xlink:href="#m1a130bea1b" x="334.076852" y="307.584" style="stroke: #000000; stroke-width: 0.8"/>
      </g>
     </g>
     <g id="text_5">
      <!-- 400 -->
      <g transform="translate(324.533102 322.182437) scale(0.1 -0.1)">
       <defs>
        <path id="DejaVuSans-34" d="M 2419 4116 
L 825 1625 
L 2419 1625 
L 2419 4116 
z
M 2253 4666 
L 3047 4666 
L 3047 1625 
L 3713 1625 
L 3713 1100 
L 3047 1100 
L 3047 0 
L 2419 0 
L 2419 1100 
L 313 1100 
L 313 1709 
L 2253 4666 
z
" transform="scale(0.015625)"/>
       </defs>
       <use xlink:href="#DejaVuSans-34"/>
       <use xlink:href="#DejaVuSans-30" x="63.623047"/>
       <use xlink:href="#DejaVuSans-30" x="127.246094"/>
      </g>
     </g>
    </g>
    <g id="xtick_6">
     <g id="line2d_6">
      <g>
       <use xlink:href="#m1a130bea1b" x="399.137883" y="307.584" style="stroke: #000000; stroke-width: 0.8"/>
      </g>
     </g>
     <g id="text_6">
      <!-- 500 -->
      <g transform="translate(389.594133 322.182437) scale(0.1 -0.1)">
       <defs>
        <path id="DejaVuSans-35" d="M 691 4666 
L 3169 4666 
L 3169 4134 
L 1269 4134 
L 1269 2991 
Q 1406 3038 1543 3061 
Q 1681 3084 1819 3084 
Q 2600 3084 3056 2656 
Q 3513 2228 3513 1497 
Q 3513 744 3044 326 
Q 2575 -91 1722 -91 
Q 1428 -91 1123 -41 
Q 819 9 494 109 
L 494 744 
Q 775 591 1075 516 
Q 1375 441 1709 441 
Q 2250 441 2565 725 
Q 2881 1009 2881 1497 
Q 2881 1984 2565 2268 
Q 2250 2553 1709 2553 
Q 1456 2553 1204 2497 
Q 953 2441 691 2322 
L 691 4666 
z
" transform="scale(0.015625)"/>
       </defs>
       <use xlink:href="#DejaVuSans-35"/>
       <use xlink:href="#DejaVuSans-30" x="63.623047"/>
       <use xlink:href="#DejaVuSans-30" x="127.246094"/>
      </g>
     </g>
    </g>
   </g>
   <g id="matplotlib.axis_2">
    <g id="ytick_1">
     <g id="line2d_7">
      <defs>
       <path id="mebe553d23c" d="M 0 0 
L -3.5 0 
" style="stroke: #000000; stroke-width: 0.8"/>
      </defs>
      <g>
       <use xlink:href="#mebe553d23c" x="57.6" y="256.803895" style="stroke: #000000; stroke-width: 0.8"/>
      </g>
     </g>
     <g id="text_7">
      <!-- 0.6 -->
      <g transform="translate(34.696875 260.603114) scale(0.1 -0.1)">
       <defs>
        <path id="DejaVuSans-2e" d="M 684 794 
L 1344 794 
L 1344 0 
L 684 0 
L 684 794 
z
" transform="scale(0.015625)"/>
        <path id="DejaVuSans-36" d="M 2113 2584 
Q 1688 2584 1439 2293 
Q 1191 2003 1191 1497 
Q 1191 994 1439 701 
Q 1688 409 2113 409 
Q 2538 409 2786 701 
Q 3034 994 3034 1497 
Q 3034 2003 2786 2293 
Q 2538 2584 2113 2584 
z
M 3366 4563 
L 3366 3988 
Q 3128 4100 2886 4159 
Q 2644 4219 2406 4219 
Q 1781 4219 1451 3797 
Q 1122 3375 1075 2522 
Q 1259 2794 1537 2939 
Q 1816 3084 2150 3084 
Q 2853 3084 3261 2657 
Q 3669 2231 3669 1497 
Q 3669 778 3244 343 
Q 2819 -91 2113 -91 
Q 1303 -91 875 529 
Q 447 1150 447 2328 
Q 447 3434 972 4092 
Q 1497 4750 2381 4750 
Q 2619 4750 2861 4703 
Q 3103 4656 3366 4563 
z
" transform="scale(0.015625)"/>
       </defs>
       <use xlink:href="#DejaVuSans-30"/>
       <use xlink:href="#DejaVuSans-2e" x="63.623047"/>
       <use xlink:href="#DejaVuSans-36" x="95.410156"/>
      </g>
     </g>
    </g>
    <g id="ytick_2">
     <g id="line2d_8">
      <g>
       <use xlink:href="#mebe553d23c" x="57.6" y="199.066425" style="stroke: #000000; stroke-width: 0.8"/>
      </g>
     </g>
     <g id="text_8">
      <!-- 0.7 -->
      <g transform="translate(34.696875 202.865644) scale(0.1 -0.1)">
       <defs>
        <path id="DejaVuSans-37" d="M 525 4666 
L 3525 4666 
L 3525 4397 
L 1831 0 
L 1172 0 
L 2766 4134 
L 525 4134 
L 525 4666 
z
" transform="scale(0.015625)"/>
       </defs>
       <use xlink:href="#DejaVuSans-30"/>
       <use xlink:href="#DejaVuSans-2e" x="63.623047"/>
       <use xlink:href="#DejaVuSans-37" x="95.410156"/>
      </g>
     </g>
    </g>
    <g id="ytick_3">
     <g id="line2d_9">
      <g>
       <use xlink:href="#mebe553d23c" x="57.6" y="141.328955" style="stroke: #000000; stroke-width: 0.8"/>
      </g>
     </g>
     <g id="text_9">
      <!-- 0.8 -->
      <g transform="translate(34.696875 145.128173) scale(0.1 -0.1)">
       <defs>
        <path id="DejaVuSans-38" d="M 2034 2216 
Q 1584 2216 1326 1975 
Q 1069 1734 1069 1313 
Q 1069 891 1326 650 
Q 1584 409 2034 409 
Q 2484 409 2743 651 
Q 3003 894 3003 1313 
Q 3003 1734 2745 1975 
Q 2488 2216 2034 2216 
z
M 1403 2484 
Q 997 2584 770 2862 
Q 544 3141 544 3541 
Q 544 4100 942 4425 
Q 1341 4750 2034 4750 
Q 2731 4750 3128 4425 
Q 3525 4100 3525 3541 
Q 3525 3141 3298 2862 
Q 3072 2584 2669 2484 
Q 3125 2378 3379 2068 
Q 3634 1759 3634 1313 
Q 3634 634 3220 271 
Q 2806 -91 2034 -91 
Q 1263 -91 848 271 
Q 434 634 434 1313 
Q 434 1759 690 2068 
Q 947 2378 1403 2484 
z
M 1172 3481 
Q 1172 3119 1398 2916 
Q 1625 2713 2034 2713 
Q 2441 2713 2670 2916 
Q 2900 3119 2900 3481 
Q 2900 3844 2670 4047 
Q 2441 4250 2034 4250 
Q 1625 4250 1398 4047 
Q 1172 3844 1172 3481 
z
" transform="scale(0.015625)"/>
       </defs>
       <use xlink:href="#DejaVuSans-30"/>
       <use xlink:href="#DejaVuSans-2e" x="63.623047"/>
       <use xlink:href="#DejaVuSans-38" x="95.410156"/>
      </g>
     </g>
    </g>
    <g id="ytick_4">
     <g id="line2d_10">
      <g>
       <use xlink:href="#mebe553d23c" x="57.6" y="83.591484" style="stroke: #000000; stroke-width: 0.8"/>
      </g>
     </g>
     <g id="text_10">
      <!-- 0.9 -->
      <g transform="translate(34.696875 87.390703) scale(0.1 -0.1)">
       <defs>
        <path id="DejaVuSans-39" d="M 703 97 
L 703 672 
Q 941 559 1184 500 
Q 1428 441 1663 441 
Q 2288 441 2617 861 
Q 2947 1281 2994 2138 
Q 2813 1869 2534 1725 
Q 2256 1581 1919 1581 
Q 1219 1581 811 2004 
Q 403 2428 403 3163 
Q 403 3881 828 4315 
Q 1253 4750 1959 4750 
Q 2769 4750 3195 4129 
Q 3622 3509 3622 2328 
Q 3622 1225 3098 567 
Q 2575 -91 1691 -91 
Q 1453 -91 1209 -44 
Q 966 3 703 97 
z
M 1959 2075 
Q 2384 2075 2632 2365 
Q 2881 2656 2881 3163 
Q 2881 3666 2632 3958 
Q 2384 4250 1959 4250 
Q 1534 4250 1286 3958 
Q 1038 3666 1038 3163 
Q 1038 2656 1286 2365 
Q 1534 2075 1959 2075 
z
" transform="scale(0.015625)"/>
       </defs>
       <use xlink:href="#DejaVuSans-30"/>
       <use xlink:href="#DejaVuSans-2e" x="63.623047"/>
       <use xlink:href="#DejaVuSans-39" x="95.410156"/>
      </g>
     </g>
    </g>
   </g>
   <g id="line2d_11">
    <path d="M 73.832727 295.488 
L 75.133948 294.333251 
L 75.784558 293.178501 
L 77.085779 292.023752 
L 79.03761 288.559504 
L 79.68822 287.982129 
L 80.33883 286.827379 
L 80.989441 286.250005 
L 81.640051 285.095255 
L 82.290661 284.517881 
L 82.941272 282.785757 
L 84.242492 281.631007 
L 85.543713 279.321508 
L 86.844934 278.166759 
L 87.495544 277.01201 
L 88.146154 277.01201 
L 89.447375 275.85726 
L 90.097985 274.125136 
L 91.399206 271.815637 
L 92.700426 270.660888 
L 93.351037 269.506138 
L 94.001647 268.928764 
L 94.652257 267.774014 
L 95.302868 267.19664 
L 95.953478 265.464516 
L 96.604088 265.464516 
L 97.254698 263.155017 
L 99.206529 261.422893 
L 100.50775 259.113394 
L 101.15836 259.113394 
L 101.808971 257.38127 
L 102.459581 257.38127 
L 103.110191 255.649146 
L 108.965684 250.452773 
L 109.616294 249.298024 
L 110.266905 248.720649 
L 110.917515 246.988525 
L 114.170567 244.101652 
L 115.471787 241.792153 
L 116.122398 241.792153 
L 117.423618 240.637403 
L 118.724839 238.327905 
L 120.67667 236.59578 
L 121.32728 235.441031 
L 122.628501 234.286282 
L 123.279111 233.131532 
L 126.532163 230.244659 
L 127.182773 229.089909 
L 130.435824 226.203036 
L 131.086435 226.203036 
L 132.387655 225.048286 
L 133.038266 223.893537 
L 134.990097 222.161413 
L 136.941927 218.697165 
L 138.893758 216.965041 
L 139.544369 215.232916 
L 142.14681 212.923418 
L 142.79742 211.768668 
L 145.399862 209.459169 
L 146.050472 208.30442 
L 146.701082 207.727045 
L 147.351692 207.727045 
L 148.002303 206.572296 
L 148.652913 205.994921 
L 149.303523 205.994921 
L 149.954134 204.840172 
L 150.604744 204.262797 
L 151.255354 204.262797 
L 151.905965 203.108048 
L 153.857796 201.375924 
L 154.508406 201.375924 
L 155.159016 200.221174 
L 155.809627 199.6438 
L 157.110847 197.334301 
L 157.761457 197.334301 
L 159.062678 196.179551 
L 159.713288 195.024802 
L 160.363899 194.447427 
L 161.014509 193.292678 
L 161.665119 193.292678 
L 162.96634 192.137928 
L 163.61695 190.983179 
L 164.267561 190.983179 
L 164.918171 189.82843 
L 166.870002 188.096305 
L 167.520612 186.941556 
L 168.171222 186.364181 
L 168.821833 185.209432 
L 169.472443 185.209432 
L 172.074884 182.899933 
L 172.725495 181.745184 
L 173.376105 181.167809 
L 174.026715 181.167809 
L 174.677326 180.01306 
L 175.978546 178.85831 
L 176.629156 178.85831 
L 177.279767 177.703561 
L 180.532818 174.816687 
L 181.183429 173.661938 
L 183.13526 171.929814 
L 183.78587 171.929814 
L 185.087091 168.465566 
L 185.737701 167.310816 
L 186.388311 167.310816 
L 187.689532 166.156067 
L 188.340142 165.001317 
L 188.990752 165.001317 
L 189.641363 163.846568 
L 197.448686 156.918072 
L 198.099297 156.918072 
L 202.002959 153.453823 
L 202.653569 152.299074 
L 203.304179 151.721699 
L 203.95479 151.721699 
L 204.6054 150.56695 
L 205.906621 150.56695 
L 208.509062 148.257451 
L 209.159672 148.257451 
L 213.063334 144.793203 
L 213.713944 144.793203 
L 214.364555 144.215828 
L 215.015165 144.215828 
L 216.966996 142.483704 
L 217.617606 142.483704 
L 218.268216 141.328955 
L 219.569437 140.174205 
L 220.220047 140.174205 
L 222.171878 138.442081 
L 222.822489 138.442081 
L 223.473099 137.287332 
L 227.376761 133.823084 
L 228.027371 133.823084 
L 228.677981 133.245709 
L 229.328592 133.245709 
L 229.979202 132.668334 
L 230.629812 132.668334 
L 231.280423 132.090959 
L 231.931033 130.93621 
L 233.232254 130.93621 
L 233.882864 130.358835 
L 234.533474 130.358835 
L 235.184085 129.204086 
L 237.135915 127.471962 
L 237.786526 127.471962 
L 241.039577 124.585088 
L 241.690188 124.585088 
L 242.340798 124.007714 
L 242.991408 124.007714 
L 246.24446 121.12084 
L 246.89507 121.12084 
L 248.196291 119.966091 
L 249.497511 119.966091 
L 250.148122 119.388716 
L 250.798732 119.388716 
L 252.750563 117.656592 
L 253.401173 117.656592 
L 255.353004 115.924468 
L 256.003615 115.924468 
L 256.654225 114.769718 
L 257.304835 114.769718 
L 257.955445 114.192344 
L 258.606056 114.192344 
L 259.256666 113.614969 
L 259.907276 113.614969 
L 261.208497 112.46022 
L 261.859107 112.46022 
L 263.160328 111.30547 
L 263.810938 111.30547 
L 265.112159 110.150721 
L 265.762769 108.995971 
L 266.413379 108.995971 
L 267.06399 107.841222 
L 267.7146 107.263847 
L 269.015821 107.263847 
L 269.666431 106.109098 
L 270.317041 106.109098 
L 271.618262 104.954348 
L 272.919483 104.954348 
L 273.570093 104.376974 
L 274.871314 104.376974 
L 275.521924 103.222224 
L 276.823144 103.222224 
L 277.473755 102.067475 
L 278.124365 101.4901 
L 278.774975 101.4901 
L 280.076196 100.335351 
L 280.726806 100.335351 
L 281.377417 99.180601 
L 282.028027 99.180601 
L 282.678637 98.603227 
L 283.979858 98.603227 
L 284.630468 98.025852 
L 285.281079 98.025852 
L 285.931689 97.448477 
L 286.582299 97.448477 
L 287.232909 96.293728 
L 288.53413 96.293728 
L 289.18474 95.716353 
L 289.835351 95.716353 
L 290.485961 95.138979 
L 291.136571 95.138979 
L 292.437792 93.984229 
L 293.088402 93.984229 
L 295.040233 92.252105 
L 295.690844 92.252105 
L 296.992064 91.097356 
L 298.943895 91.097356 
L 299.594505 89.942606 
L 300.895726 89.942606 
L 301.546336 89.365232 
L 302.196947 89.365232 
L 303.498167 88.210482 
L 304.799388 88.210482 
L 305.449998 87.633107 
L 306.100608 87.633107 
L 307.401829 86.478358 
L 309.35366 86.478358 
L 310.00427 85.900983 
L 310.654881 85.900983 
L 311.305491 85.323609 
L 311.956101 85.323609 
L 314.558543 83.01411 
L 315.859763 83.01411 
L 316.510373 82.436735 
L 317.160984 82.436735 
L 318.462204 81.281986 
L 319.112815 81.281986 
L 319.763425 80.704611 
L 321.715256 80.704611 
L 322.365866 80.127236 
L 323.016477 80.127236 
L 323.667087 78.972487 
L 326.269528 78.972487 
L 327.570749 77.817737 
L 328.221359 77.817737 
L 328.871969 77.240363 
L 329.52258 76.085613 
L 330.8238 76.085613 
L 331.474411 75.508239 
L 332.125021 75.508239 
L 333.426242 74.353489 
L 334.076852 74.353489 
L 334.727462 73.776115 
L 336.028683 73.776115 
L 337.329903 72.621365 
L 337.980514 72.621365 
L 338.631124 72.04399 
L 339.281734 72.04399 
L 340.582955 70.889241 
L 341.233565 70.889241 
L 342.534786 69.734492 
L 343.185396 69.734492 
L 343.836007 69.157117 
L 344.486617 69.157117 
L 345.137227 68.579742 
L 345.787837 68.579742 
L 346.438448 68.002368 
L 347.089058 68.002368 
L 347.739668 67.424993 
L 348.390279 67.424993 
L 349.040889 66.847618 
L 350.99272 66.847618 
L 351.64333 66.270243 
L 352.944551 66.270243 
L 353.595161 65.692869 
L 354.896382 65.692869 
L 355.546992 65.115494 
L 356.197602 65.115494 
L 356.848213 63.960745 
L 357.498823 63.38337 
L 360.101264 63.38337 
L 360.751875 62.805995 
L 362.703706 62.805995 
L 363.354316 62.228621 
L 365.306147 62.228621 
L 365.956757 61.651246 
L 366.607367 61.651246 
L 367.257978 61.073871 
L 369.860419 61.073871 
L 371.16164 59.919122 
L 375.715912 59.919122 
L 376.366522 59.341747 
L 378.318353 59.341747 
L 378.968963 58.764372 
L 379.619574 58.764372 
L 380.270184 58.186998 
L 383.523236 58.186998 
L 384.173846 57.609623 
L 385.475066 57.609623 
L 386.125677 57.032248 
L 388.077508 57.032248 
L 388.728118 55.877499 
L 390.029339 55.877499 
L 390.679949 55.300124 
L 391.98117 55.300124 
L 392.63178 54.722749 
L 393.933001 54.722749 
L 395.234221 53.568 
L 398.487273 53.568 
L 398.487273 53.568 
" clip-path="url(#pc72315a96c)" style="fill: none; stroke: #1f77b4; stroke-width: 1.5; stroke-linecap: square"/>
   </g>
   <g id="patch_3">
    <path d="M 57.6 307.584 
L 57.6 41.472 
" style="fill: none; stroke: #000000; stroke-width: 0.8; stroke-linejoin: miter; stroke-linecap: square"/>
   </g>
   <g id="patch_4">
    <path d="M 414.72 307.584 
L 414.72 41.472 
" style="fill: none; stroke: #000000; stroke-width: 0.8; stroke-linejoin: miter; stroke-linecap: square"/>
   </g>
   <g id="patch_5">
    <path d="M 57.6 307.584 
L 414.72 307.584 
" style="fill: none; stroke: #000000; stroke-width: 0.8; stroke-linejoin: miter; stroke-linecap: square"/>
   </g>
   <g id="patch_6">
    <path d="M 57.6 41.472 
L 414.72 41.472 
" style="fill: none; stroke: #000000; stroke-width: 0.8; stroke-linejoin: miter; stroke-linecap: square"/>
   </g>
  </g>
 </g>
 <defs>
  <clipPath id="pc72315a96c">
   <rect x="57.6" y="41.472" width="357.12" height="266.112"/>
  </clipPath>
 </defs>
</svg>
