<?xml version="1.0" encoding="utf-8" standalone="no"?>
<!DOCTYPE svg PUBLIC "-//W3C//DTD SVG 1.1//EN"
  "http://www.w3.org/Graphics/SVG/1.1/DTD/svg11.dtd">
<svg xmlns:xlink="http://www.w3.org/1999/xlink" width="460.8pt" height="345.6pt" viewBox="0 0 460.8 345.6" xmlns="http://www.w3.org/2000/svg" version="1.1">
 <metadata>
  <rdf:RDF xmlns:dc="http://purl.org/dc/elements/1.1/" xmlns:cc="http://creativecommons.org/ns#" xmlns:rdf="http://www.w3.org/1999/02/22-rdf-syntax-ns#">
   <cc:Work>
    <dc:type rdf:resource="http://purl.org/dc/dcmitype/StillImage"/>
    <dc:date>2023-12-02T23:10:32.669265</dc:date>
    <dc:format>image/svg+xml</dc:format>
    <dc:creator>
     <cc:Agent>
      <dc:title>Matplotlib v3.8.1, https://matplotlib.org/</dc:title>
     </cc:Agent>
    </dc:creator>
   </cc:Work>
  </rdf:RDF>
 </metadata>
 <defs>
  <style type="text/css">*{stroke-linejoin: round; stroke-linecap: butt}</style>
 </defs>
 <g id="figure_1">
  <g id="patch_1">
   <path d="M 0 345.6 
L 460.8 345.6 
L 460.8 0 
L 0 0 
z
" style="fill: #ffffff"/>
  </g>
  <g id="axes_1">
   <g id="patch_2">
    <path d="M 57.6 307.584 
L 414.72 307.584 
L 414.72 41.472 
L 57.6 41.472 
z
" style="fill: #ffffff"/>
   </g>
   <g id="matplotlib.axis_1">
    <g id="xtick_1">
     <g id="line2d_1">
      <defs>
       <path id="mc460d5d62b" d="M 0 0 
L 0 3.5 
" style="stroke: #000000; stroke-width: 0.8"/>
      </defs>
      <g>
       <use xlink:href="#mc460d5d62b" x="73.832727" y="307.584" style="stroke: #000000; stroke-width: 0.8"/>
      </g>
     </g>
     <g id="text_1">
      <!-- 0 -->
      <g transform="translate(70.651477 322.182437) scale(0.1 -0.1)">
       <defs>
        <path id="DejaVuSans-30" d="M 2034 4250 
Q 1547 4250 1301 3770 
Q 1056 3291 1056 2328 
Q 1056 1369 1301 889 
Q 1547 409 2034 409 
Q 2525 409 2770 889 
Q 3016 1369 3016 2328 
Q 3016 3291 2770 3770 
Q 2525 4250 2034 4250 
z
M 2034 4750 
Q 2819 4750 3233 4129 
Q 3647 3509 3647 2328 
Q 3647 1150 3233 529 
Q 2819 -91 2034 -91 
Q 1250 -91 836 529 
Q 422 1150 422 2328 
Q 422 3509 836 4129 
Q 1250 4750 2034 4750 
z
" transform="scale(0.015625)"/>
       </defs>
       <use xlink:href="#DejaVuSans-30"/>
      </g>
     </g>
    </g>
    <g id="xtick_2">
     <g id="line2d_2">
      <g>
       <use xlink:href="#mc460d5d62b" x="138.893758" y="307.584" style="stroke: #000000; stroke-width: 0.8"/>
      </g>
     </g>
     <g id="text_2">
      <!-- 100 -->
      <g transform="translate(129.350008 322.182437) scale(0.1 -0.1)">
       <defs>
        <path id="DejaVuSans-31" d="M 794 531 
L 1825 531 
L 1825 4091 
L 703 3866 
L 703 4441 
L 1819 4666 
L 2450 4666 
L 2450 531 
L 3481 531 
L 3481 0 
L 794 0 
L 794 531 
z
" transform="scale(0.015625)"/>
       </defs>
       <use xlink:href="#DejaVuSans-31"/>
       <use xlink:href="#DejaVuSans-30" x="63.623047"/>
       <use xlink:href="#DejaVuSans-30" x="127.246094"/>
      </g>
     </g>
    </g>
    <g id="xtick_3">
     <g id="line2d_3">
      <g>
       <use xlink:href="#mc460d5d62b" x="203.95479" y="307.584" style="stroke: #000000; stroke-width: 0.8"/>
      </g>
     </g>
     <g id="text_3">
      <!-- 200 -->
      <g transform="translate(194.41104 322.182437) scale(0.1 -0.1)">
       <defs>
        <path id="DejaVuSans-32" d="M 1228 531 
L 3431 531 
L 3431 0 
L 469 0 
L 469 531 
Q 828 903 1448 1529 
Q 2069 2156 2228 2338 
Q 2531 2678 2651 2914 
Q 2772 3150 2772 3378 
Q 2772 3750 2511 3984 
Q 2250 4219 1831 4219 
Q 1534 4219 1204 4116 
Q 875 4013 500 3803 
L 500 4441 
Q 881 4594 1212 4672 
Q 1544 4750 1819 4750 
Q 2544 4750 2975 4387 
Q 3406 4025 3406 3419 
Q 3406 3131 3298 2873 
Q 3191 2616 2906 2266 
Q 2828 2175 2409 1742 
Q 1991 1309 1228 531 
z
" transform="scale(0.015625)"/>
       </defs>
       <use xlink:href="#DejaVuSans-32"/>
       <use xlink:href="#DejaVuSans-30" x="63.623047"/>
       <use xlink:href="#DejaVuSans-30" x="127.246094"/>
      </g>
     </g>
    </g>
    <g id="xtick_4">
     <g id="line2d_4">
      <g>
       <use xlink:href="#mc460d5d62b" x="269.015821" y="307.584" style="stroke: #000000; stroke-width: 0.8"/>
      </g>
     </g>
     <g id="text_4">
      <!-- 300 -->
      <g transform="translate(259.472071 322.182437) scale(0.1 -0.1)">
       <defs>
        <path id="DejaVuSans-33" d="M 2597 2516 
Q 3050 2419 3304 2112 
Q 3559 1806 3559 1356 
Q 3559 666 3084 287 
Q 2609 -91 1734 -91 
Q 1441 -91 1130 -33 
Q 819 25 488 141 
L 488 750 
Q 750 597 1062 519 
Q 1375 441 1716 441 
Q 2309 441 2620 675 
Q 2931 909 2931 1356 
Q 2931 1769 2642 2001 
Q 2353 2234 1838 2234 
L 1294 2234 
L 1294 2753 
L 1863 2753 
Q 2328 2753 2575 2939 
Q 2822 3125 2822 3475 
Q 2822 3834 2567 4026 
Q 2313 4219 1838 4219 
Q 1578 4219 1281 4162 
Q 984 4106 628 3988 
L 628 4550 
Q 988 4650 1302 4700 
Q 1616 4750 1894 4750 
Q 2613 4750 3031 4423 
Q 3450 4097 3450 3541 
Q 3450 3153 3228 2886 
Q 3006 2619 2597 2516 
z
" transform="scale(0.015625)"/>
       </defs>
       <use xlink:href="#DejaVuSans-33"/>
       <use xlink:href="#DejaVuSans-30" x="63.623047"/>
       <use xlink:href="#DejaVuSans-30" x="127.246094"/>
      </g>
     </g>
    </g>
    <g id="xtick_5">
     <g id="line2d_5">
      <g>
       <use xlink:href="#mc460d5d62b" x="334.076852" y="307.584" style="stroke: #000000; stroke-width: 0.8"/>
      </g>
     </g>
     <g id="text_5">
      <!-- 400 -->
      <g transform="translate(324.533102 322.182437) scale(0.1 -0.1)">
       <defs>
        <path id="DejaVuSans-34" d="M 2419 4116 
L 825 1625 
L 2419 1625 
L 2419 4116 
z
M 2253 4666 
L 3047 4666 
L 3047 1625 
L 3713 1625 
L 3713 1100 
L 3047 1100 
L 3047 0 
L 2419 0 
L 2419 1100 
L 313 1100 
L 313 1709 
L 2253 4666 
z
" transform="scale(0.015625)"/>
       </defs>
       <use xlink:href="#DejaVuSans-34"/>
       <use xlink:href="#DejaVuSans-30" x="63.623047"/>
       <use xlink:href="#DejaVuSans-30" x="127.246094"/>
      </g>
     </g>
    </g>
    <g id="xtick_6">
     <g id="line2d_6">
      <g>
       <use xlink:href="#mc460d5d62b" x="399.137883" y="307.584" style="stroke: #000000; stroke-width: 0.8"/>
      </g>
     </g>
     <g id="text_6">
      <!-- 500 -->
      <g transform="translate(389.594133 322.182437) scale(0.1 -0.1)">
       <defs>
        <path id="DejaVuSans-35" d="M 691 4666 
L 3169 4666 
L 3169 4134 
L 1269 4134 
L 1269 2991 
Q 1406 3038 1543 3061 
Q 1681 3084 1819 3084 
Q 2600 3084 3056 2656 
Q 3513 2228 3513 1497 
Q 3513 744 3044 326 
Q 2575 -91 1722 -91 
Q 1428 -91 1123 -41 
Q 819 9 494 109 
L 494 744 
Q 775 591 1075 516 
Q 1375 441 1709 441 
Q 2250 441 2565 725 
Q 2881 1009 2881 1497 
Q 2881 1984 2565 2268 
Q 2250 2553 1709 2553 
Q 1456 2553 1204 2497 
Q 953 2441 691 2322 
L 691 4666 
z
" transform="scale(0.015625)"/>
       </defs>
       <use xlink:href="#DejaVuSans-35"/>
       <use xlink:href="#DejaVuSans-30" x="63.623047"/>
       <use xlink:href="#DejaVuSans-30" x="127.246094"/>
      </g>
     </g>
    </g>
   </g>
   <g id="matplotlib.axis_2">
    <g id="ytick_1">
     <g id="line2d_7">
      <defs>
       <path id="md57274ebf2" d="M 0 0 
L -3.5 0 
" style="stroke: #000000; stroke-width: 0.8"/>
      </defs>
      <g>
       <use xlink:href="#md57274ebf2" x="57.6" y="277.568" style="stroke: #000000; stroke-width: 0.8"/>
      </g>
     </g>
     <g id="text_7">
      <!-- 0.50 -->
      <g transform="translate(28.334375 281.367219) scale(0.1 -0.1)">
       <defs>
        <path id="DejaVuSans-2e" d="M 684 794 
L 1344 794 
L 1344 0 
L 684 0 
L 684 794 
z
" transform="scale(0.015625)"/>
       </defs>
       <use xlink:href="#DejaVuSans-30"/>
       <use xlink:href="#DejaVuSans-2e" x="63.623047"/>
       <use xlink:href="#DejaVuSans-35" x="95.410156"/>
       <use xlink:href="#DejaVuSans-30" x="159.033203"/>
      </g>
     </g>
    </g>
    <g id="ytick_2">
     <g id="line2d_8">
      <g>
       <use xlink:href="#md57274ebf2" x="57.6" y="232.768" style="stroke: #000000; stroke-width: 0.8"/>
      </g>
     </g>
     <g id="text_8">
      <!-- 0.55 -->
      <g transform="translate(28.334375 236.567219) scale(0.1 -0.1)">
       <use xlink:href="#DejaVuSans-30"/>
       <use xlink:href="#DejaVuSans-2e" x="63.623047"/>
       <use xlink:href="#DejaVuSans-35" x="95.410156"/>
       <use xlink:href="#DejaVuSans-35" x="159.033203"/>
      </g>
     </g>
    </g>
    <g id="ytick_3">
     <g id="line2d_9">
      <g>
       <use xlink:href="#md57274ebf2" x="57.6" y="187.968" style="stroke: #000000; stroke-width: 0.8"/>
      </g>
     </g>
     <g id="text_9">
      <!-- 0.60 -->
      <g transform="translate(28.334375 191.767219) scale(0.1 -0.1)">
       <defs>
        <path id="DejaVuSans-36" d="M 2113 2584 
Q 1688 2584 1439 2293 
Q 1191 2003 1191 1497 
Q 1191 994 1439 701 
Q 1688 409 2113 409 
Q 2538 409 2786 701 
Q 3034 994 3034 1497 
Q 3034 2003 2786 2293 
Q 2538 2584 2113 2584 
z
M 3366 4563 
L 3366 3988 
Q 3128 4100 2886 4159 
Q 2644 4219 2406 4219 
Q 1781 4219 1451 3797 
Q 1122 3375 1075 2522 
Q 1259 2794 1537 2939 
Q 1816 3084 2150 3084 
Q 2853 3084 3261 2657 
Q 3669 2231 3669 1497 
Q 3669 778 3244 343 
Q 2819 -91 2113 -91 
Q 1303 -91 875 529 
Q 447 1150 447 2328 
Q 447 3434 972 4092 
Q 1497 4750 2381 4750 
Q 2619 4750 2861 4703 
Q 3103 4656 3366 4563 
z
" transform="scale(0.015625)"/>
       </defs>
       <use xlink:href="#DejaVuSans-30"/>
       <use xlink:href="#DejaVuSans-2e" x="63.623047"/>
       <use xlink:href="#DejaVuSans-36" x="95.410156"/>
       <use xlink:href="#DejaVuSans-30" x="159.033203"/>
      </g>
     </g>
    </g>
    <g id="ytick_4">
     <g id="line2d_10">
      <g>
       <use xlink:href="#md57274ebf2" x="57.6" y="143.168" style="stroke: #000000; stroke-width: 0.8"/>
      </g>
     </g>
     <g id="text_10">
      <!-- 0.65 -->
      <g transform="translate(28.334375 146.967219) scale(0.1 -0.1)">
       <use xlink:href="#DejaVuSans-30"/>
       <use xlink:href="#DejaVuSans-2e" x="63.623047"/>
       <use xlink:href="#DejaVuSans-36" x="95.410156"/>
       <use xlink:href="#DejaVuSans-35" x="159.033203"/>
      </g>
     </g>
    </g>
    <g id="ytick_5">
     <g id="line2d_11">
      <g>
       <use xlink:href="#md57274ebf2" x="57.6" y="98.368" style="stroke: #000000; stroke-width: 0.8"/>
      </g>
     </g>
     <g id="text_11">
      <!-- 0.70 -->
      <g transform="translate(28.334375 102.167219) scale(0.1 -0.1)">
       <defs>
        <path id="DejaVuSans-37" d="M 525 4666 
L 3525 4666 
L 3525 4397 
L 1831 0 
L 1172 0 
L 2766 4134 
L 525 4134 
L 525 4666 
z
" transform="scale(0.015625)"/>
       </defs>
       <use xlink:href="#DejaVuSans-30"/>
       <use xlink:href="#DejaVuSans-2e" x="63.623047"/>
       <use xlink:href="#DejaVuSans-37" x="95.410156"/>
       <use xlink:href="#DejaVuSans-30" x="159.033203"/>
      </g>
     </g>
    </g>
    <g id="ytick_6">
     <g id="line2d_12">
      <g>
       <use xlink:href="#md57274ebf2" x="57.6" y="53.568" style="stroke: #000000; stroke-width: 0.8"/>
      </g>
     </g>
     <g id="text_12">
      <!-- 0.75 -->
      <g transform="translate(28.334375 57.367219) scale(0.1 -0.1)">
       <use xlink:href="#DejaVuSans-30"/>
       <use xlink:href="#DejaVuSans-2e" x="63.623047"/>
       <use xlink:href="#DejaVuSans-37" x="95.410156"/>
       <use xlink:href="#DejaVuSans-35" x="159.033203"/>
      </g>
     </g>
    </g>
   </g>
   <g id="line2d_13">
    <path d="M 73.832727 295.488 
L 74.483338 295.488 
L 75.133948 293.696 
L 75.784558 293.696 
L 77.085779 290.112 
L 77.736389 290.112 
L 78.386999 288.32 
L 79.03761 288.32 
L 79.68822 286.528 
L 80.989441 286.528 
L 81.640051 284.736 
L 82.941272 284.736 
L 83.591882 282.944 
L 85.543713 282.944 
L 86.194323 281.152 
L 88.146154 281.152 
L 88.796764 279.36 
L 89.447375 279.36 
L 90.097985 277.568 
L 90.748595 277.568 
L 91.399206 275.776 
L 92.700426 275.776 
L 93.351037 273.984 
L 94.652257 273.984 
L 95.302868 272.192 
L 95.953478 272.192 
L 96.604088 270.4 
L 99.206529 270.4 
L 100.50775 266.816 
L 101.808971 266.816 
L 102.459581 265.024 
L 103.110191 265.024 
L 103.760802 263.232 
L 104.411412 263.232 
L 105.062022 261.44 
L 105.712633 261.44 
L 106.363243 259.648 
L 108.315074 259.648 
L 108.965684 257.856 
L 110.917515 257.856 
L 111.568125 256.064 
L 112.218736 256.064 
L 112.869346 254.272 
L 114.170567 254.272 
L 115.471787 250.688 
L 116.773008 250.688 
L 117.423618 248.896 
L 119.375449 248.896 
L 120.026059 247.104 
L 120.67667 247.104 
L 121.32728 245.312 
L 121.97789 245.312 
L 122.628501 243.52 
L 123.279111 243.52 
L 123.929721 241.728 
L 124.580332 241.728 
L 125.230942 239.936 
L 127.182773 239.936 
L 127.833383 238.144 
L 128.483993 238.144 
L 129.134604 236.352 
L 132.387655 236.352 
L 133.038266 234.56 
L 135.640707 234.56 
L 136.291317 232.768 
L 138.243148 232.768 
L 139.544369 229.184 
L 140.194979 229.184 
L 141.4962 225.6 
L 144.749251 225.6 
L 145.399862 223.808 
L 147.351692 223.808 
L 149.303523 218.432 
L 151.905965 218.432 
L 152.556575 216.64 
L 155.809627 216.64 
L 156.460237 214.848 
L 157.761457 214.848 
L 158.412068 213.056 
L 159.062678 213.056 
L 159.713288 211.264 
L 163.61695 211.264 
L 164.267561 209.472 
L 164.918171 209.472 
L 165.568781 207.68 
L 168.821833 207.68 
L 169.472443 205.888 
L 170.773664 205.888 
L 171.424274 204.096 
L 172.074884 204.096 
L 172.725495 202.304 
L 175.327936 202.304 
L 175.978546 200.512 
L 177.930377 200.512 
L 178.580987 198.72 
L 180.532818 198.72 
L 181.183429 196.928 
L 182.484649 196.928 
L 183.13526 195.136 
L 184.43648 195.136 
L 185.087091 193.344 
L 188.990752 193.344 
L 189.641363 191.552 
L 190.291973 191.552 
L 190.942583 189.76 
L 192.894414 189.76 
L 193.545025 187.968 
L 196.798076 187.968 
L 197.448686 186.176 
L 200.701738 186.176 
L 201.352348 184.384 
L 202.002959 184.384 
L 202.653569 182.592 
L 203.95479 182.592 
L 204.6054 180.8 
L 205.25601 180.8 
L 206.557231 177.216 
L 209.159672 177.216 
L 209.810282 175.424 
L 211.762113 175.424 
L 212.412724 173.632 
L 213.063334 173.632 
L 213.713944 171.84 
L 215.665775 171.84 
L 216.316385 170.048 
L 217.617606 170.048 
L 218.268216 168.256 
L 220.220047 168.256 
L 220.870658 166.464 
L 222.822489 166.464 
L 224.123709 162.88 
L 225.42493 162.88 
L 226.07554 161.088 
L 229.328592 161.088 
L 229.979202 159.296 
L 231.280423 159.296 
L 231.931033 157.504 
L 234.533474 157.504 
L 235.184085 155.712 
L 236.485305 155.712 
L 237.135915 153.92 
L 237.786526 153.92 
L 238.437136 152.128 
L 241.690188 152.128 
L 242.340798 150.336 
L 244.292629 150.336 
L 245.59385 146.752 
L 248.196291 146.752 
L 248.846901 144.96 
L 249.497511 144.96 
L 250.148122 143.168 
L 250.798732 143.168 
L 251.449342 141.376 
L 252.750563 141.376 
L 253.401173 139.584 
L 254.702394 139.584 
L 255.353004 137.792 
L 256.654225 137.792 
L 257.304835 136 
L 262.509718 136 
L 263.160328 134.208 
L 265.762769 134.208 
L 266.413379 132.416 
L 269.015821 132.416 
L 269.666431 130.624 
L 274.871314 130.624 
L 275.521924 128.832 
L 276.172534 128.832 
L 276.823144 127.04 
L 277.473755 127.04 
L 278.124365 125.248 
L 278.774975 125.248 
L 279.425586 123.456 
L 281.377417 123.456 
L 282.028027 121.664 
L 283.329248 121.664 
L 283.979858 119.872 
L 286.582299 119.872 
L 287.232909 118.08 
L 288.53413 118.08 
L 289.835351 114.496 
L 291.787182 114.496 
L 293.088402 110.912 
L 293.739013 110.912 
L 294.389623 109.12 
L 297.642674 109.12 
L 298.293285 107.328 
L 300.895726 107.328 
L 301.546336 105.536 
L 302.196947 105.536 
L 302.847557 103.744 
L 304.799388 103.744 
L 305.449998 101.952 
L 306.100608 101.952 
L 306.751219 100.16 
L 307.401829 100.16 
L 308.70305 96.576 
L 310.654881 96.576 
L 311.305491 94.784 
L 312.606712 94.784 
L 313.907932 91.2 
L 318.462204 91.2 
L 319.112815 89.408 
L 321.064646 89.408 
L 321.715256 87.616 
L 326.920138 87.616 
L 327.570749 85.824 
L 332.125021 85.824 
L 332.775631 84.032 
L 334.076852 84.032 
L 334.727462 82.24 
L 335.378073 82.24 
L 336.028683 80.448 
L 339.932345 80.448 
L 340.582955 78.656 
L 343.185396 78.656 
L 343.836007 76.864 
L 345.137227 76.864 
L 345.787837 75.072 
L 348.390279 75.072 
L 349.040889 73.28 
L 362.053095 73.28 
L 362.703706 71.488 
L 364.655537 71.488 
L 365.306147 69.696 
L 367.908588 69.696 
L 368.559198 67.904 
L 373.764081 67.904 
L 375.065302 64.32 
L 375.715912 64.32 
L 376.366522 62.528 
L 378.318353 62.528 
L 379.619574 58.944 
L 390.029339 58.944 
L 390.679949 57.152 
L 392.63178 57.152 
L 393.28239 55.36 
L 395.884831 55.36 
L 396.535442 53.568 
L 398.487273 53.568 
L 398.487273 53.568 
" clip-path="url(#p6c5aaa14e1)" style="fill: none; stroke: #1f77b4; stroke-width: 1.5; stroke-linecap: square"/>
   </g>
   <g id="patch_3">
    <path d="M 57.6 307.584 
L 57.6 41.472 
" style="fill: none; stroke: #000000; stroke-width: 0.8; stroke-linejoin: miter; stroke-linecap: square"/>
   </g>
   <g id="patch_4">
    <path d="M 414.72 307.584 
L 414.72 41.472 
" style="fill: none; stroke: #000000; stroke-width: 0.8; stroke-linejoin: miter; stroke-linecap: square"/>
   </g>
   <g id="patch_5">
    <path d="M 57.6 307.584 
L 414.72 307.584 
" style="fill: none; stroke: #000000; stroke-width: 0.8; stroke-linejoin: miter; stroke-linecap: square"/>
   </g>
   <g id="patch_6">
    <path d="M 57.6 41.472 
L 414.72 41.472 
" style="fill: none; stroke: #000000; stroke-width: 0.8; stroke-linejoin: miter; stroke-linecap: square"/>
   </g>
  </g>
 </g>
 <defs>
  <clipPath id="p6c5aaa14e1">
   <rect x="57.6" y="41.472" width="357.12" height="266.112"/>
  </clipPath>
 </defs>
</svg>
