<?xml version="1.0" encoding="utf-8" standalone="no"?>
<!DOCTYPE svg PUBLIC "-//W3C//DTD SVG 1.1//EN"
  "http://www.w3.org/Graphics/SVG/1.1/DTD/svg11.dtd">
<svg xmlns:xlink="http://www.w3.org/1999/xlink" width="460.8pt" height="345.6pt" viewBox="0 0 460.8 345.6" xmlns="http://www.w3.org/2000/svg" version="1.1">
 <metadata>
  <rdf:RDF xmlns:dc="http://purl.org/dc/elements/1.1/" xmlns:cc="http://creativecommons.org/ns#" xmlns:rdf="http://www.w3.org/1999/02/22-rdf-syntax-ns#">
   <cc:Work>
    <dc:type rdf:resource="http://purl.org/dc/dcmitype/StillImage"/>
    <dc:date>2023-12-02T23:06:30.341825</dc:date>
    <dc:format>image/svg+xml</dc:format>
    <dc:creator>
     <cc:Agent>
      <dc:title>Matplotlib v3.8.1, https://matplotlib.org/</dc:title>
     </cc:Agent>
    </dc:creator>
   </cc:Work>
  </rdf:RDF>
 </metadata>
 <defs>
  <style type="text/css">*{stroke-linejoin: round; stroke-linecap: butt}</style>
 </defs>
 <g id="figure_1">
  <g id="patch_1">
   <path d="M 0 345.6 
L 460.8 345.6 
L 460.8 0 
L 0 0 
z
" style="fill: #ffffff"/>
  </g>
  <g id="axes_1">
   <g id="patch_2">
    <path d="M 57.6 307.584 
L 414.72 307.584 
L 414.72 41.472 
L 57.6 41.472 
z
" style="fill: #ffffff"/>
   </g>
   <g id="matplotlib.axis_1">
    <g id="xtick_1">
     <g id="line2d_1">
      <defs>
       <path id="macc24edd99" d="M 0 0 
L 0 3.5 
" style="stroke: #000000; stroke-width: 0.8"/>
      </defs>
      <g>
       <use xlink:href="#macc24edd99" x="73.832727" y="307.584" style="stroke: #000000; stroke-width: 0.8"/>
      </g>
     </g>
     <g id="text_1">
      <!-- 0 -->
      <g transform="translate(70.651477 322.182437) scale(0.1 -0.1)">
       <defs>
        <path id="DejaVuSans-30" d="M 2034 4250 
Q 1547 4250 1301 3770 
Q 1056 3291 1056 2328 
Q 1056 1369 1301 889 
Q 1547 409 2034 409 
Q 2525 409 2770 889 
Q 3016 1369 3016 2328 
Q 3016 3291 2770 3770 
Q 2525 4250 2034 4250 
z
M 2034 4750 
Q 2819 4750 3233 4129 
Q 3647 3509 3647 2328 
Q 3647 1150 3233 529 
Q 2819 -91 2034 -91 
Q 1250 -91 836 529 
Q 422 1150 422 2328 
Q 422 3509 836 4129 
Q 1250 4750 2034 4750 
z
" transform="scale(0.015625)"/>
       </defs>
       <use xlink:href="#DejaVuSans-30"/>
      </g>
     </g>
    </g>
    <g id="xtick_2">
     <g id="line2d_2">
      <g>
       <use xlink:href="#macc24edd99" x="138.893758" y="307.584" style="stroke: #000000; stroke-width: 0.8"/>
      </g>
     </g>
     <g id="text_2">
      <!-- 100 -->
      <g transform="translate(129.350008 322.182437) scale(0.1 -0.1)">
       <defs>
        <path id="DejaVuSans-31" d="M 794 531 
L 1825 531 
L 1825 4091 
L 703 3866 
L 703 4441 
L 1819 4666 
L 2450 4666 
L 2450 531 
L 3481 531 
L 3481 0 
L 794 0 
L 794 531 
z
" transform="scale(0.015625)"/>
       </defs>
       <use xlink:href="#DejaVuSans-31"/>
       <use xlink:href="#DejaVuSans-30" x="63.623047"/>
       <use xlink:href="#DejaVuSans-30" x="127.246094"/>
      </g>
     </g>
    </g>
    <g id="xtick_3">
     <g id="line2d_3">
      <g>
       <use xlink:href="#macc24edd99" x="203.95479" y="307.584" style="stroke: #000000; stroke-width: 0.8"/>
      </g>
     </g>
     <g id="text_3">
      <!-- 200 -->
      <g transform="translate(194.41104 322.182437) scale(0.1 -0.1)">
       <defs>
        <path id="DejaVuSans-32" d="M 1228 531 
L 3431 531 
L 3431 0 
L 469 0 
L 469 531 
Q 828 903 1448 1529 
Q 2069 2156 2228 2338 
Q 2531 2678 2651 2914 
Q 2772 3150 2772 3378 
Q 2772 3750 2511 3984 
Q 2250 4219 1831 4219 
Q 1534 4219 1204 4116 
Q 875 4013 500 3803 
L 500 4441 
Q 881 4594 1212 4672 
Q 1544 4750 1819 4750 
Q 2544 4750 2975 4387 
Q 3406 4025 3406 3419 
Q 3406 3131 3298 2873 
Q 3191 2616 2906 2266 
Q 2828 2175 2409 1742 
Q 1991 1309 1228 531 
z
" transform="scale(0.015625)"/>
       </defs>
       <use xlink:href="#DejaVuSans-32"/>
       <use xlink:href="#DejaVuSans-30" x="63.623047"/>
       <use xlink:href="#DejaVuSans-30" x="127.246094"/>
      </g>
     </g>
    </g>
    <g id="xtick_4">
     <g id="line2d_4">
      <g>
       <use xlink:href="#macc24edd99" x="269.015821" y="307.584" style="stroke: #000000; stroke-width: 0.8"/>
      </g>
     </g>
     <g id="text_4">
      <!-- 300 -->
      <g transform="translate(259.472071 322.182437) scale(0.1 -0.1)">
       <defs>
        <path id="DejaVuSans-33" d="M 2597 2516 
Q 3050 2419 3304 2112 
Q 3559 1806 3559 1356 
Q 3559 666 3084 287 
Q 2609 -91 1734 -91 
Q 1441 -91 1130 -33 
Q 819 25 488 141 
L 488 750 
Q 750 597 1062 519 
Q 1375 441 1716 441 
Q 2309 441 2620 675 
Q 2931 909 2931 1356 
Q 2931 1769 2642 2001 
Q 2353 2234 1838 2234 
L 1294 2234 
L 1294 2753 
L 1863 2753 
Q 2328 2753 2575 2939 
Q 2822 3125 2822 3475 
Q 2822 3834 2567 4026 
Q 2313 4219 1838 4219 
Q 1578 4219 1281 4162 
Q 984 4106 628 3988 
L 628 4550 
Q 988 4650 1302 4700 
Q 1616 4750 1894 4750 
Q 2613 4750 3031 4423 
Q 3450 4097 3450 3541 
Q 3450 3153 3228 2886 
Q 3006 2619 2597 2516 
z
" transform="scale(0.015625)"/>
       </defs>
       <use xlink:href="#DejaVuSans-33"/>
       <use xlink:href="#DejaVuSans-30" x="63.623047"/>
       <use xlink:href="#DejaVuSans-30" x="127.246094"/>
      </g>
     </g>
    </g>
    <g id="xtick_5">
     <g id="line2d_5">
      <g>
       <use xlink:href="#macc24edd99" x="334.076852" y="307.584" style="stroke: #000000; stroke-width: 0.8"/>
      </g>
     </g>
     <g id="text_5">
      <!-- 400 -->
      <g transform="translate(324.533102 322.182437) scale(0.1 -0.1)">
       <defs>
        <path id="DejaVuSans-34" d="M 2419 4116 
L 825 1625 
L 2419 1625 
L 2419 4116 
z
M 2253 4666 
L 3047 4666 
L 3047 1625 
L 3713 1625 
L 3713 1100 
L 3047 1100 
L 3047 0 
L 2419 0 
L 2419 1100 
L 313 1100 
L 313 1709 
L 2253 4666 
z
" transform="scale(0.015625)"/>
       </defs>
       <use xlink:href="#DejaVuSans-34"/>
       <use xlink:href="#DejaVuSans-30" x="63.623047"/>
       <use xlink:href="#DejaVuSans-30" x="127.246094"/>
      </g>
     </g>
    </g>
    <g id="xtick_6">
     <g id="line2d_6">
      <g>
       <use xlink:href="#macc24edd99" x="399.137883" y="307.584" style="stroke: #000000; stroke-width: 0.8"/>
      </g>
     </g>
     <g id="text_6">
      <!-- 500 -->
      <g transform="translate(389.594133 322.182437) scale(0.1 -0.1)">
       <defs>
        <path id="DejaVuSans-35" d="M 691 4666 
L 3169 4666 
L 3169 4134 
L 1269 4134 
L 1269 2991 
Q 1406 3038 1543 3061 
Q 1681 3084 1819 3084 
Q 2600 3084 3056 2656 
Q 3513 2228 3513 1497 
Q 3513 744 3044 326 
Q 2575 -91 1722 -91 
Q 1428 -91 1123 -41 
Q 819 9 494 109 
L 494 744 
Q 775 591 1075 516 
Q 1375 441 1709 441 
Q 2250 441 2565 725 
Q 2881 1009 2881 1497 
Q 2881 1984 2565 2268 
Q 2250 2553 1709 2553 
Q 1456 2553 1204 2497 
Q 953 2441 691 2322 
L 691 4666 
z
" transform="scale(0.015625)"/>
       </defs>
       <use xlink:href="#DejaVuSans-35"/>
       <use xlink:href="#DejaVuSans-30" x="63.623047"/>
       <use xlink:href="#DejaVuSans-30" x="127.246094"/>
      </g>
     </g>
    </g>
   </g>
   <g id="matplotlib.axis_2">
    <g id="ytick_1">
     <g id="line2d_7">
      <defs>
       <path id="m10ca850435" d="M 0 0 
L -3.5 0 
" style="stroke: #000000; stroke-width: 0.8"/>
      </defs>
      <g>
       <use xlink:href="#m10ca850435" x="57.6" y="284.305428" style="stroke: #000000; stroke-width: 0.8"/>
      </g>
     </g>
     <g id="text_7">
      <!-- 0.30 -->
      <g transform="translate(28.334375 288.104647) scale(0.1 -0.1)">
       <defs>
        <path id="DejaVuSans-2e" d="M 684 794 
L 1344 794 
L 1344 0 
L 684 0 
L 684 794 
z
" transform="scale(0.015625)"/>
       </defs>
       <use xlink:href="#DejaVuSans-30"/>
       <use xlink:href="#DejaVuSans-2e" x="63.623047"/>
       <use xlink:href="#DejaVuSans-33" x="95.410156"/>
       <use xlink:href="#DejaVuSans-30" x="159.033203"/>
      </g>
     </g>
    </g>
    <g id="ytick_2">
     <g id="line2d_8">
      <g>
       <use xlink:href="#m10ca850435" x="57.6" y="228.94616" style="stroke: #000000; stroke-width: 0.8"/>
      </g>
     </g>
     <g id="text_8">
      <!-- 0.31 -->
      <g transform="translate(28.334375 232.745379) scale(0.1 -0.1)">
       <use xlink:href="#DejaVuSans-30"/>
       <use xlink:href="#DejaVuSans-2e" x="63.623047"/>
       <use xlink:href="#DejaVuSans-33" x="95.410156"/>
       <use xlink:href="#DejaVuSans-31" x="159.033203"/>
      </g>
     </g>
    </g>
    <g id="ytick_3">
     <g id="line2d_9">
      <g>
       <use xlink:href="#m10ca850435" x="57.6" y="173.586892" style="stroke: #000000; stroke-width: 0.8"/>
      </g>
     </g>
     <g id="text_9">
      <!-- 0.32 -->
      <g transform="translate(28.334375 177.386111) scale(0.1 -0.1)">
       <use xlink:href="#DejaVuSans-30"/>
       <use xlink:href="#DejaVuSans-2e" x="63.623047"/>
       <use xlink:href="#DejaVuSans-33" x="95.410156"/>
       <use xlink:href="#DejaVuSans-32" x="159.033203"/>
      </g>
     </g>
    </g>
    <g id="ytick_4">
     <g id="line2d_10">
      <g>
       <use xlink:href="#m10ca850435" x="57.6" y="118.227625" style="stroke: #000000; stroke-width: 0.8"/>
      </g>
     </g>
     <g id="text_10">
      <!-- 0.33 -->
      <g transform="translate(28.334375 122.026843) scale(0.1 -0.1)">
       <use xlink:href="#DejaVuSans-30"/>
       <use xlink:href="#DejaVuSans-2e" x="63.623047"/>
       <use xlink:href="#DejaVuSans-33" x="95.410156"/>
       <use xlink:href="#DejaVuSans-33" x="159.033203"/>
      </g>
     </g>
    </g>
    <g id="ytick_5">
     <g id="line2d_11">
      <g>
       <use xlink:href="#m10ca850435" x="57.6" y="62.868357" style="stroke: #000000; stroke-width: 0.8"/>
      </g>
     </g>
     <g id="text_11">
      <!-- 0.34 -->
      <g transform="translate(28.334375 66.667576) scale(0.1 -0.1)">
       <use xlink:href="#DejaVuSans-30"/>
       <use xlink:href="#DejaVuSans-2e" x="63.623047"/>
       <use xlink:href="#DejaVuSans-33" x="95.410156"/>
       <use xlink:href="#DejaVuSans-34" x="159.033203"/>
      </g>
     </g>
    </g>
   </g>
   <g id="line2d_12">
    <path d="M 73.832727 295.488 
L 75.133948 294.380815 
L 75.784558 277.773034 
L 76.435169 277.717675 
L 77.736389 276.665849 
L 78.386999 276.61049 
L 79.68822 275.503304 
L 80.33883 275.503304 
L 80.989441 274.894352 
L 82.290661 274.894352 
L 84.242492 273.233574 
L 85.543713 273.122856 
L 86.194323 272.624622 
L 86.844934 272.513904 
L 87.495544 271.960311 
L 88.146154 271.960311 
L 88.796764 271.462078 
L 90.097985 271.296 
L 90.748595 270.853126 
L 92.049816 270.742407 
L 92.700426 270.687048 
L 93.351037 270.188815 
L 94.001647 270.188815 
L 94.652257 269.635222 
L 95.953478 269.579863 
L 96.604088 269.02627 
L 98.555919 268.915551 
L 99.206529 252.861364 
L 100.50775 252.806005 
L 101.15836 252.252412 
L 101.808971 252.252412 
L 102.459581 251.698819 
L 103.110191 251.64346 
L 103.760802 251.145227 
L 104.411412 251.145227 
L 105.062022 250.591634 
L 106.363243 250.480915 
L 107.013853 249.927323 
L 108.315074 249.871963 
L 108.965684 249.37373 
L 110.266905 249.318371 
L 110.917515 232.71059 
L 111.568125 232.655231 
L 112.218736 231.548046 
L 115.471787 231.492686 
L 117.423618 229.72119 
L 118.724839 229.665831 
L 119.375449 229.056879 
L 120.026059 229.056879 
L 120.67667 228.503286 
L 123.279111 228.392568 
L 123.929721 227.728256 
L 124.580332 227.728256 
L 125.230942 227.174664 
L 127.833383 227.119304 
L 129.134604 226.067478 
L 130.435824 225.9014 
L 131.086435 225.458526 
L 133.038266 225.347808 
L 133.688876 224.185263 
L 134.339486 224.185263 
L 134.990097 223.63167 
L 136.291317 223.576311 
L 136.941927 223.022719 
L 138.893758 222.912 
L 139.544369 222.358407 
L 140.845589 222.303048 
L 141.4962 221.804815 
L 143.448031 221.749455 
L 144.098641 221.195863 
L 145.399862 221.140503 
L 146.701082 219.977959 
L 147.351692 219.9226 
L 148.002303 219.369007 
L 150.604744 219.258288 
L 151.255354 202.650508 
L 151.905965 202.096915 
L 153.857796 202.041556 
L 154.508406 201.543323 
L 156.460237 201.432604 
L 157.110847 200.934371 
L 157.761457 200.879011 
L 158.412068 200.325419 
L 159.062678 200.270059 
L 159.713288 199.716467 
L 161.665119 199.605748 
L 162.31573 199.107515 
L 165.568781 198.996796 
L 166.219392 198.498563 
L 168.171222 198.443204 
L 168.821833 197.889611 
L 172.725495 197.834252 
L 173.376105 197.280659 
L 175.978546 197.169941 
L 176.629156 197.114581 
L 177.930377 196.007396 
L 179.231598 196.007396 
L 179.882208 195.453803 
L 182.484649 195.398444 
L 183.13526 194.844851 
L 184.43648 194.789492 
L 185.087091 194.235899 
L 188.340142 194.125181 
L 188.990752 193.626947 
L 190.942583 193.571588 
L 191.593194 193.017995 
L 195.496856 192.962636 
L 196.147466 192.409043 
L 198.099297 192.353684 
L 198.749907 191.744732 
L 200.051128 191.744732 
L 200.701738 191.19114 
L 205.906621 191.080421 
L 206.557231 190.526828 
L 207.858451 190.526828 
L 208.509062 189.973236 
L 211.111503 189.917876 
L 211.762113 189.364284 
L 213.713944 189.308924 
L 214.364555 188.755332 
L 215.015165 188.755332 
L 215.665775 172.701144 
L 220.870658 172.590426 
L 221.521268 172.147551 
L 223.473099 172.036833 
L 224.123709 171.926114 
L 224.77432 171.427881 
L 225.42493 171.427881 
L 226.72615 170.320696 
L 229.979202 170.265336 
L 230.629812 169.656384 
L 232.581643 169.601025 
L 233.232254 169.047432 
L 234.533474 169.047432 
L 235.184085 168.49384 
L 241.039577 168.383121 
L 241.690188 167.829529 
L 242.991408 167.829529 
L 243.642019 151.221748 
L 244.943239 151.221748 
L 245.59385 150.668156 
L 251.449342 150.557437 
L 252.750563 150.502078 
L 253.401173 150.003844 
L 255.353004 149.948485 
L 256.003615 149.948485 
L 256.654225 133.340705 
L 257.304835 133.340705 
L 257.955445 132.787112 
L 260.557887 132.787112 
L 261.208497 132.233519 
L 263.160328 132.17816 
L 263.810938 131.624568 
L 267.7146 131.569208 
L 268.36521 131.015616 
L 269.666431 98.9626 
L 272.919483 98.90724 
L 273.570093 98.409007 
L 275.521924 98.298288 
L 276.172534 97.744696 
L 278.124365 97.689336 
L 278.774975 97.191103 
L 283.979858 97.135744 
L 284.630468 96.582151 
L 290.485961 96.526792 
L 291.136571 95.973199 
L 293.088402 95.91784 
L 293.739013 95.364247 
L 295.690844 95.308888 
L 296.341454 94.755295 
L 298.293285 94.755295 
L 298.943895 78.147515 
L 303.498167 78.092156 
L 304.148778 77.538563 
L 306.100608 77.483204 
L 308.70305 77.427844 
L 309.35366 76.874252 
L 311.956101 76.818892 
L 312.606712 76.320659 
L 314.558543 76.2653 
L 317.160984 76.209941 
L 317.811594 75.656348 
L 320.414035 75.600989 
L 321.064646 75.102755 
L 324.317697 75.047396 
L 324.968308 74.493803 
L 334.076852 74.383085 
L 336.028683 74.327725 
L 337.329903 74.327725 
L 337.980514 73.774133 
L 339.281734 73.774133 
L 339.932345 73.22054 
L 341.884176 73.22054 
L 342.534786 72.666947 
L 350.99272 72.556229 
L 351.64333 72.057995 
L 353.595161 72.002636 
L 354.245772 71.449043 
L 371.81225 71.393684 
L 372.46286 70.840092 
L 377.017132 70.784732 
L 377.667743 70.23114 
L 391.98117 70.17578 
L 392.63178 53.568 
L 398.487273 53.568 
L 398.487273 53.568 
" clip-path="url(#p5d64c7a902)" style="fill: none; stroke: #1f77b4; stroke-width: 1.5; stroke-linecap: square"/>
   </g>
   <g id="patch_3">
    <path d="M 57.6 307.584 
L 57.6 41.472 
" style="fill: none; stroke: #000000; stroke-width: 0.8; stroke-linejoin: miter; stroke-linecap: square"/>
   </g>
   <g id="patch_4">
    <path d="M 414.72 307.584 
L 414.72 41.472 
" style="fill: none; stroke: #000000; stroke-width: 0.8; stroke-linejoin: miter; stroke-linecap: square"/>
   </g>
   <g id="patch_5">
    <path d="M 57.6 307.584 
L 414.72 307.584 
" style="fill: none; stroke: #000000; stroke-width: 0.8; stroke-linejoin: miter; stroke-linecap: square"/>
   </g>
   <g id="patch_6">
    <path d="M 57.6 41.472 
L 414.72 41.472 
" style="fill: none; stroke: #000000; stroke-width: 0.8; stroke-linejoin: miter; stroke-linecap: square"/>
   </g>
  </g>
 </g>
 <defs>
  <clipPath id="p5d64c7a902">
   <rect x="57.6" y="41.472" width="357.12" height="266.112"/>
  </clipPath>
 </defs>
</svg>
