<?xml version="1.0" encoding="utf-8" standalone="no"?>
<!DOCTYPE svg PUBLIC "-//W3C//DTD SVG 1.1//EN"
  "http://www.w3.org/Graphics/SVG/1.1/DTD/svg11.dtd">
<svg xmlns:xlink="http://www.w3.org/1999/xlink" width="1008pt" height="288pt" viewBox="0 0 1008 288" xmlns="http://www.w3.org/2000/svg" version="1.1">
 <metadata>
  <rdf:RDF xmlns:dc="http://purl.org/dc/elements/1.1/" xmlns:cc="http://creativecommons.org/ns#" xmlns:rdf="http://www.w3.org/1999/02/22-rdf-syntax-ns#">
   <cc:Work>
    <dc:type rdf:resource="http://purl.org/dc/dcmitype/StillImage"/>
    <dc:date>2023-11-17T22:15:49.977150</dc:date>
    <dc:format>image/svg+xml</dc:format>
    <dc:creator>
     <cc:Agent>
      <dc:title>Matplotlib v3.8.1, https://matplotlib.org/</dc:title>
     </cc:Agent>
    </dc:creator>
   </cc:Work>
  </rdf:RDF>
 </metadata>
 <defs>
  <style type="text/css">*{stroke-linejoin: round; stroke-linecap: butt}</style>
 </defs>
 <g id="figure_1">
  <g id="patch_1">
   <path d="M 0 288 
L 1008 288 
L 1008 0 
L 0 0 
z
" style="fill: #ffffff"/>
  </g>
  <g id="axes_1">
   <g id="patch_2">
    <path d="M 126 256.32 
L 907.2 256.32 
L 907.2 34.56 
L 126 34.56 
z
" style="fill: #ffffff"/>
   </g>
   <g id="matplotlib.axis_1">
    <g id="xtick_1">
     <g id="line2d_1">
      <defs>
       <path id="mae8fda396e" d="M 0 0 
L 0 3.5 
" style="stroke: #000000; stroke-width: 0.8"/>
      </defs>
      <g>
       <use xlink:href="#mae8fda396e" x="161.509091" y="256.32" style="stroke: #000000; stroke-width: 0.8"/>
      </g>
     </g>
     <g id="text_1">
      <!-- 0 -->
      <g transform="translate(158.327841 270.918437) scale(0.1 -0.1)">
       <defs>
        <path id="DejaVuSans-30" d="M 2034 4250 
Q 1547 4250 1301 3770 
Q 1056 3291 1056 2328 
Q 1056 1369 1301 889 
Q 1547 409 2034 409 
Q 2525 409 2770 889 
Q 3016 1369 3016 2328 
Q 3016 3291 2770 3770 
Q 2525 4250 2034 4250 
z
M 2034 4750 
Q 2819 4750 3233 4129 
Q 3647 3509 3647 2328 
Q 3647 1150 3233 529 
Q 2819 -91 2034 -91 
Q 1250 -91 836 529 
Q 422 1150 422 2328 
Q 422 3509 836 4129 
Q 1250 4750 2034 4750 
z
" transform="scale(0.015625)"/>
       </defs>
       <use xlink:href="#DejaVuSans-30"/>
      </g>
     </g>
    </g>
    <g id="xtick_2">
     <g id="line2d_2">
      <g>
       <use xlink:href="#mae8fda396e" x="252.558042" y="256.32" style="stroke: #000000; stroke-width: 0.8"/>
      </g>
     </g>
     <g id="text_2">
      <!-- 5 -->
      <g transform="translate(249.376792 270.918437) scale(0.1 -0.1)">
       <defs>
        <path id="DejaVuSans-35" d="M 691 4666 
L 3169 4666 
L 3169 4134 
L 1269 4134 
L 1269 2991 
Q 1406 3038 1543 3061 
Q 1681 3084 1819 3084 
Q 2600 3084 3056 2656 
Q 3513 2228 3513 1497 
Q 3513 744 3044 326 
Q 2575 -91 1722 -91 
Q 1428 -91 1123 -41 
Q 819 9 494 109 
L 494 744 
Q 775 591 1075 516 
Q 1375 441 1709 441 
Q 2250 441 2565 725 
Q 2881 1009 2881 1497 
Q 2881 1984 2565 2268 
Q 2250 2553 1709 2553 
Q 1456 2553 1204 2497 
Q 953 2441 691 2322 
L 691 4666 
z
" transform="scale(0.015625)"/>
       </defs>
       <use xlink:href="#DejaVuSans-35"/>
      </g>
     </g>
    </g>
    <g id="xtick_3">
     <g id="line2d_3">
      <g>
       <use xlink:href="#mae8fda396e" x="343.606993" y="256.32" style="stroke: #000000; stroke-width: 0.8"/>
      </g>
     </g>
     <g id="text_3">
      <!-- 10 -->
      <g transform="translate(337.244493 270.918437) scale(0.1 -0.1)">
       <defs>
        <path id="DejaVuSans-31" d="M 794 531 
L 1825 531 
L 1825 4091 
L 703 3866 
L 703 4441 
L 1819 4666 
L 2450 4666 
L 2450 531 
L 3481 531 
L 3481 0 
L 794 0 
L 794 531 
z
" transform="scale(0.015625)"/>
       </defs>
       <use xlink:href="#DejaVuSans-31"/>
       <use xlink:href="#DejaVuSans-30" x="63.623047"/>
      </g>
     </g>
    </g>
    <g id="xtick_4">
     <g id="line2d_4">
      <g>
       <use xlink:href="#mae8fda396e" x="434.655944" y="256.32" style="stroke: #000000; stroke-width: 0.8"/>
      </g>
     </g>
     <g id="text_4">
      <!-- 15 -->
      <g transform="translate(428.293444 270.918437) scale(0.1 -0.1)">
       <use xlink:href="#DejaVuSans-31"/>
       <use xlink:href="#DejaVuSans-35" x="63.623047"/>
      </g>
     </g>
    </g>
    <g id="xtick_5">
     <g id="line2d_5">
      <g>
       <use xlink:href="#mae8fda396e" x="525.704895" y="256.32" style="stroke: #000000; stroke-width: 0.8"/>
      </g>
     </g>
     <g id="text_5">
      <!-- 20 -->
      <g transform="translate(519.342395 270.918437) scale(0.1 -0.1)">
       <defs>
        <path id="DejaVuSans-32" d="M 1228 531 
L 3431 531 
L 3431 0 
L 469 0 
L 469 531 
Q 828 903 1448 1529 
Q 2069 2156 2228 2338 
Q 2531 2678 2651 2914 
Q 2772 3150 2772 3378 
Q 2772 3750 2511 3984 
Q 2250 4219 1831 4219 
Q 1534 4219 1204 4116 
Q 875 4013 500 3803 
L 500 4441 
Q 881 4594 1212 4672 
Q 1544 4750 1819 4750 
Q 2544 4750 2975 4387 
Q 3406 4025 3406 3419 
Q 3406 3131 3298 2873 
Q 3191 2616 2906 2266 
Q 2828 2175 2409 1742 
Q 1991 1309 1228 531 
z
" transform="scale(0.015625)"/>
       </defs>
       <use xlink:href="#DejaVuSans-32"/>
       <use xlink:href="#DejaVuSans-30" x="63.623047"/>
      </g>
     </g>
    </g>
    <g id="xtick_6">
     <g id="line2d_6">
      <g>
       <use xlink:href="#mae8fda396e" x="616.753846" y="256.32" style="stroke: #000000; stroke-width: 0.8"/>
      </g>
     </g>
     <g id="text_6">
      <!-- 25 -->
      <g transform="translate(610.391346 270.918437) scale(0.1 -0.1)">
       <use xlink:href="#DejaVuSans-32"/>
       <use xlink:href="#DejaVuSans-35" x="63.623047"/>
      </g>
     </g>
    </g>
    <g id="xtick_7">
     <g id="line2d_7">
      <g>
       <use xlink:href="#mae8fda396e" x="707.802797" y="256.32" style="stroke: #000000; stroke-width: 0.8"/>
      </g>
     </g>
     <g id="text_7">
      <!-- 30 -->
      <g transform="translate(701.440297 270.918437) scale(0.1 -0.1)">
       <defs>
        <path id="DejaVuSans-33" d="M 2597 2516 
Q 3050 2419 3304 2112 
Q 3559 1806 3559 1356 
Q 3559 666 3084 287 
Q 2609 -91 1734 -91 
Q 1441 -91 1130 -33 
Q 819 25 488 141 
L 488 750 
Q 750 597 1062 519 
Q 1375 441 1716 441 
Q 2309 441 2620 675 
Q 2931 909 2931 1356 
Q 2931 1769 2642 2001 
Q 2353 2234 1838 2234 
L 1294 2234 
L 1294 2753 
L 1863 2753 
Q 2328 2753 2575 2939 
Q 2822 3125 2822 3475 
Q 2822 3834 2567 4026 
Q 2313 4219 1838 4219 
Q 1578 4219 1281 4162 
Q 984 4106 628 3988 
L 628 4550 
Q 988 4650 1302 4700 
Q 1616 4750 1894 4750 
Q 2613 4750 3031 4423 
Q 3450 4097 3450 3541 
Q 3450 3153 3228 2886 
Q 3006 2619 2597 2516 
z
" transform="scale(0.015625)"/>
       </defs>
       <use xlink:href="#DejaVuSans-33"/>
       <use xlink:href="#DejaVuSans-30" x="63.623047"/>
      </g>
     </g>
    </g>
    <g id="xtick_8">
     <g id="line2d_8">
      <g>
       <use xlink:href="#mae8fda396e" x="798.851748" y="256.32" style="stroke: #000000; stroke-width: 0.8"/>
      </g>
     </g>
     <g id="text_8">
      <!-- 35 -->
      <g transform="translate(792.489248 270.918437) scale(0.1 -0.1)">
       <use xlink:href="#DejaVuSans-33"/>
       <use xlink:href="#DejaVuSans-35" x="63.623047"/>
      </g>
     </g>
    </g>
    <g id="xtick_9">
     <g id="line2d_9">
      <g>
       <use xlink:href="#mae8fda396e" x="889.900699" y="256.32" style="stroke: #000000; stroke-width: 0.8"/>
      </g>
     </g>
     <g id="text_9">
      <!-- 40 -->
      <g transform="translate(883.538199 270.918437) scale(0.1 -0.1)">
       <defs>
        <path id="DejaVuSans-34" d="M 2419 4116 
L 825 1625 
L 2419 1625 
L 2419 4116 
z
M 2253 4666 
L 3047 4666 
L 3047 1625 
L 3713 1625 
L 3713 1100 
L 3047 1100 
L 3047 0 
L 2419 0 
L 2419 1100 
L 313 1100 
L 313 1709 
L 2253 4666 
z
" transform="scale(0.015625)"/>
       </defs>
       <use xlink:href="#DejaVuSans-34"/>
       <use xlink:href="#DejaVuSans-30" x="63.623047"/>
      </g>
     </g>
    </g>
   </g>
   <g id="matplotlib.axis_2">
    <g id="ytick_1">
     <g id="line2d_10">
      <defs>
       <path id="m73146b69f6" d="M 0 0 
L -3.5 0 
" style="stroke: #000000; stroke-width: 0.8"/>
      </defs>
      <g>
       <use xlink:href="#m73146b69f6" x="126" y="235.629474" style="stroke: #000000; stroke-width: 0.8"/>
      </g>
     </g>
     <g id="text_10">
      <!-- 0.550 -->
      <g transform="translate(90.371875 239.428692) scale(0.1 -0.1)">
       <defs>
        <path id="DejaVuSans-2e" d="M 684 794 
L 1344 794 
L 1344 0 
L 684 0 
L 684 794 
z
" transform="scale(0.015625)"/>
       </defs>
       <use xlink:href="#DejaVuSans-30"/>
       <use xlink:href="#DejaVuSans-2e" x="63.623047"/>
       <use xlink:href="#DejaVuSans-35" x="95.410156"/>
       <use xlink:href="#DejaVuSans-35" x="159.033203"/>
       <use xlink:href="#DejaVuSans-30" x="222.65625"/>
      </g>
     </g>
    </g>
    <g id="ytick_2">
     <g id="line2d_11">
      <g>
       <use xlink:href="#m73146b69f6" x="126" y="209.103158" style="stroke: #000000; stroke-width: 0.8"/>
      </g>
     </g>
     <g id="text_11">
      <!-- 0.575 -->
      <g transform="translate(90.371875 212.902377) scale(0.1 -0.1)">
       <defs>
        <path id="DejaVuSans-37" d="M 525 4666 
L 3525 4666 
L 3525 4397 
L 1831 0 
L 1172 0 
L 2766 4134 
L 525 4134 
L 525 4666 
z
" transform="scale(0.015625)"/>
       </defs>
       <use xlink:href="#DejaVuSans-30"/>
       <use xlink:href="#DejaVuSans-2e" x="63.623047"/>
       <use xlink:href="#DejaVuSans-35" x="95.410156"/>
       <use xlink:href="#DejaVuSans-37" x="159.033203"/>
       <use xlink:href="#DejaVuSans-35" x="222.65625"/>
      </g>
     </g>
    </g>
    <g id="ytick_3">
     <g id="line2d_12">
      <g>
       <use xlink:href="#m73146b69f6" x="126" y="182.576842" style="stroke: #000000; stroke-width: 0.8"/>
      </g>
     </g>
     <g id="text_12">
      <!-- 0.600 -->
      <g transform="translate(90.371875 186.376061) scale(0.1 -0.1)">
       <defs>
        <path id="DejaVuSans-36" d="M 2113 2584 
Q 1688 2584 1439 2293 
Q 1191 2003 1191 1497 
Q 1191 994 1439 701 
Q 1688 409 2113 409 
Q 2538 409 2786 701 
Q 3034 994 3034 1497 
Q 3034 2003 2786 2293 
Q 2538 2584 2113 2584 
z
M 3366 4563 
L 3366 3988 
Q 3128 4100 2886 4159 
Q 2644 4219 2406 4219 
Q 1781 4219 1451 3797 
Q 1122 3375 1075 2522 
Q 1259 2794 1537 2939 
Q 1816 3084 2150 3084 
Q 2853 3084 3261 2657 
Q 3669 2231 3669 1497 
Q 3669 778 3244 343 
Q 2819 -91 2113 -91 
Q 1303 -91 875 529 
Q 447 1150 447 2328 
Q 447 3434 972 4092 
Q 1497 4750 2381 4750 
Q 2619 4750 2861 4703 
Q 3103 4656 3366 4563 
z
" transform="scale(0.015625)"/>
       </defs>
       <use xlink:href="#DejaVuSans-30"/>
       <use xlink:href="#DejaVuSans-2e" x="63.623047"/>
       <use xlink:href="#DejaVuSans-36" x="95.410156"/>
       <use xlink:href="#DejaVuSans-30" x="159.033203"/>
       <use xlink:href="#DejaVuSans-30" x="222.65625"/>
      </g>
     </g>
    </g>
    <g id="ytick_4">
     <g id="line2d_13">
      <g>
       <use xlink:href="#m73146b69f6" x="126" y="156.050526" style="stroke: #000000; stroke-width: 0.8"/>
      </g>
     </g>
     <g id="text_13">
      <!-- 0.625 -->
      <g transform="translate(90.371875 159.849745) scale(0.1 -0.1)">
       <use xlink:href="#DejaVuSans-30"/>
       <use xlink:href="#DejaVuSans-2e" x="63.623047"/>
       <use xlink:href="#DejaVuSans-36" x="95.410156"/>
       <use xlink:href="#DejaVuSans-32" x="159.033203"/>
       <use xlink:href="#DejaVuSans-35" x="222.65625"/>
      </g>
     </g>
    </g>
    <g id="ytick_5">
     <g id="line2d_14">
      <g>
       <use xlink:href="#m73146b69f6" x="126" y="129.524211" style="stroke: #000000; stroke-width: 0.8"/>
      </g>
     </g>
     <g id="text_14">
      <!-- 0.650 -->
      <g transform="translate(90.371875 133.323429) scale(0.1 -0.1)">
       <use xlink:href="#DejaVuSans-30"/>
       <use xlink:href="#DejaVuSans-2e" x="63.623047"/>
       <use xlink:href="#DejaVuSans-36" x="95.410156"/>
       <use xlink:href="#DejaVuSans-35" x="159.033203"/>
       <use xlink:href="#DejaVuSans-30" x="222.65625"/>
      </g>
     </g>
    </g>
    <g id="ytick_6">
     <g id="line2d_15">
      <g>
       <use xlink:href="#m73146b69f6" x="126" y="102.997895" style="stroke: #000000; stroke-width: 0.8"/>
      </g>
     </g>
     <g id="text_15">
      <!-- 0.675 -->
      <g transform="translate(90.371875 106.797113) scale(0.1 -0.1)">
       <use xlink:href="#DejaVuSans-30"/>
       <use xlink:href="#DejaVuSans-2e" x="63.623047"/>
       <use xlink:href="#DejaVuSans-36" x="95.410156"/>
       <use xlink:href="#DejaVuSans-37" x="159.033203"/>
       <use xlink:href="#DejaVuSans-35" x="222.65625"/>
      </g>
     </g>
    </g>
    <g id="ytick_7">
     <g id="line2d_16">
      <g>
       <use xlink:href="#m73146b69f6" x="126" y="76.471579" style="stroke: #000000; stroke-width: 0.8"/>
      </g>
     </g>
     <g id="text_16">
      <!-- 0.700 -->
      <g transform="translate(90.371875 80.270798) scale(0.1 -0.1)">
       <use xlink:href="#DejaVuSans-30"/>
       <use xlink:href="#DejaVuSans-2e" x="63.623047"/>
       <use xlink:href="#DejaVuSans-37" x="95.410156"/>
       <use xlink:href="#DejaVuSans-30" x="159.033203"/>
       <use xlink:href="#DejaVuSans-30" x="222.65625"/>
      </g>
     </g>
    </g>
    <g id="ytick_8">
     <g id="line2d_17">
      <g>
       <use xlink:href="#m73146b69f6" x="126" y="49.945263" style="stroke: #000000; stroke-width: 0.8"/>
      </g>
     </g>
     <g id="text_17">
      <!-- 0.725 -->
      <g transform="translate(90.371875 53.744482) scale(0.1 -0.1)">
       <use xlink:href="#DejaVuSans-30"/>
       <use xlink:href="#DejaVuSans-2e" x="63.623047"/>
       <use xlink:href="#DejaVuSans-37" x="95.410156"/>
       <use xlink:href="#DejaVuSans-32" x="159.033203"/>
       <use xlink:href="#DejaVuSans-35" x="222.65625"/>
      </g>
     </g>
    </g>
   </g>
   <g id="line2d_18">
    <path d="M 161.509091 44.64 
L 179.718881 246.24 
L 197.928671 203.797895 
L 216.138462 225.018947 
L 234.348252 193.187368 
L 252.558042 129.524211 
L 270.767832 129.524211 
L 288.977622 171.966316 
L 307.187413 182.576842 
L 325.397203 108.303158 
L 343.606993 129.524211 
L 361.816783 214.408421 
L 380.026573 225.018947 
L 398.236364 225.018947 
L 416.446154 193.187368 
L 434.655944 118.913684 
L 452.865734 203.797895 
L 471.075524 182.576842 
L 489.285315 203.797895 
L 507.495105 161.355789 
L 525.704895 203.797895 
L 543.914685 118.913684 
L 562.124476 129.524211 
L 580.334266 76.471579 
L 598.544056 97.692632 
L 616.753846 87.082105 
L 634.963636 140.134737 
L 653.173427 97.692632 
L 671.383217 65.861053 
L 689.593007 140.134737 
L 707.802797 87.082105 
L 726.012587 97.692632 
L 744.222378 129.524211 
L 762.432168 182.576842 
L 780.641958 182.576842 
L 798.851748 129.524211 
L 817.061538 140.134737 
L 835.271329 108.303158 
L 853.481119 150.745263 
L 871.690909 87.082105 
" clip-path="url(#pb6b08fd445)" style="fill: none; stroke: #1f77b4; stroke-width: 1.5; stroke-linecap: square"/>
    <defs>
     <path id="mefd3d76ebc" d="M 0 1.5 
C 0.397805 1.5 0.77937 1.341951 1.06066 1.06066 
C 1.341951 0.77937 1.5 0.397805 1.5 0 
C 1.5 -0.397805 1.341951 -0.77937 1.06066 -1.06066 
C 0.77937 -1.341951 0.397805 -1.5 0 -1.5 
C -0.397805 -1.5 -0.77937 -1.341951 -1.06066 -1.06066 
C -1.341951 -0.77937 -1.5 -0.397805 -1.5 0 
C -1.5 0.397805 -1.341951 0.77937 -1.06066 1.06066 
C -0.77937 1.341951 -0.397805 1.5 0 1.5 
z
" style="stroke: #1f77b4"/>
    </defs>
    <g clip-path="url(#pb6b08fd445)">
     <use xlink:href="#mefd3d76ebc" x="161.509091" y="44.64" style="fill: #1f77b4; stroke: #1f77b4"/>
     <use xlink:href="#mefd3d76ebc" x="179.718881" y="246.24" style="fill: #1f77b4; stroke: #1f77b4"/>
     <use xlink:href="#mefd3d76ebc" x="197.928671" y="203.797895" style="fill: #1f77b4; stroke: #1f77b4"/>
     <use xlink:href="#mefd3d76ebc" x="216.138462" y="225.018947" style="fill: #1f77b4; stroke: #1f77b4"/>
     <use xlink:href="#mefd3d76ebc" x="234.348252" y="193.187368" style="fill: #1f77b4; stroke: #1f77b4"/>
     <use xlink:href="#mefd3d76ebc" x="252.558042" y="129.524211" style="fill: #1f77b4; stroke: #1f77b4"/>
     <use xlink:href="#mefd3d76ebc" x="270.767832" y="129.524211" style="fill: #1f77b4; stroke: #1f77b4"/>
     <use xlink:href="#mefd3d76ebc" x="288.977622" y="171.966316" style="fill: #1f77b4; stroke: #1f77b4"/>
     <use xlink:href="#mefd3d76ebc" x="307.187413" y="182.576842" style="fill: #1f77b4; stroke: #1f77b4"/>
     <use xlink:href="#mefd3d76ebc" x="325.397203" y="108.303158" style="fill: #1f77b4; stroke: #1f77b4"/>
     <use xlink:href="#mefd3d76ebc" x="343.606993" y="129.524211" style="fill: #1f77b4; stroke: #1f77b4"/>
     <use xlink:href="#mefd3d76ebc" x="361.816783" y="214.408421" style="fill: #1f77b4; stroke: #1f77b4"/>
     <use xlink:href="#mefd3d76ebc" x="380.026573" y="225.018947" style="fill: #1f77b4; stroke: #1f77b4"/>
     <use xlink:href="#mefd3d76ebc" x="398.236364" y="225.018947" style="fill: #1f77b4; stroke: #1f77b4"/>
     <use xlink:href="#mefd3d76ebc" x="416.446154" y="193.187368" style="fill: #1f77b4; stroke: #1f77b4"/>
     <use xlink:href="#mefd3d76ebc" x="434.655944" y="118.913684" style="fill: #1f77b4; stroke: #1f77b4"/>
     <use xlink:href="#mefd3d76ebc" x="452.865734" y="203.797895" style="fill: #1f77b4; stroke: #1f77b4"/>
     <use xlink:href="#mefd3d76ebc" x="471.075524" y="182.576842" style="fill: #1f77b4; stroke: #1f77b4"/>
     <use xlink:href="#mefd3d76ebc" x="489.285315" y="203.797895" style="fill: #1f77b4; stroke: #1f77b4"/>
     <use xlink:href="#mefd3d76ebc" x="507.495105" y="161.355789" style="fill: #1f77b4; stroke: #1f77b4"/>
     <use xlink:href="#mefd3d76ebc" x="525.704895" y="203.797895" style="fill: #1f77b4; stroke: #1f77b4"/>
     <use xlink:href="#mefd3d76ebc" x="543.914685" y="118.913684" style="fill: #1f77b4; stroke: #1f77b4"/>
     <use xlink:href="#mefd3d76ebc" x="562.124476" y="129.524211" style="fill: #1f77b4; stroke: #1f77b4"/>
     <use xlink:href="#mefd3d76ebc" x="580.334266" y="76.471579" style="fill: #1f77b4; stroke: #1f77b4"/>
     <use xlink:href="#mefd3d76ebc" x="598.544056" y="97.692632" style="fill: #1f77b4; stroke: #1f77b4"/>
     <use xlink:href="#mefd3d76ebc" x="616.753846" y="87.082105" style="fill: #1f77b4; stroke: #1f77b4"/>
     <use xlink:href="#mefd3d76ebc" x="634.963636" y="140.134737" style="fill: #1f77b4; stroke: #1f77b4"/>
     <use xlink:href="#mefd3d76ebc" x="653.173427" y="97.692632" style="fill: #1f77b4; stroke: #1f77b4"/>
     <use xlink:href="#mefd3d76ebc" x="671.383217" y="65.861053" style="fill: #1f77b4; stroke: #1f77b4"/>
     <use xlink:href="#mefd3d76ebc" x="689.593007" y="140.134737" style="fill: #1f77b4; stroke: #1f77b4"/>
     <use xlink:href="#mefd3d76ebc" x="707.802797" y="87.082105" style="fill: #1f77b4; stroke: #1f77b4"/>
     <use xlink:href="#mefd3d76ebc" x="726.012587" y="97.692632" style="fill: #1f77b4; stroke: #1f77b4"/>
     <use xlink:href="#mefd3d76ebc" x="744.222378" y="129.524211" style="fill: #1f77b4; stroke: #1f77b4"/>
     <use xlink:href="#mefd3d76ebc" x="762.432168" y="182.576842" style="fill: #1f77b4; stroke: #1f77b4"/>
     <use xlink:href="#mefd3d76ebc" x="780.641958" y="182.576842" style="fill: #1f77b4; stroke: #1f77b4"/>
     <use xlink:href="#mefd3d76ebc" x="798.851748" y="129.524211" style="fill: #1f77b4; stroke: #1f77b4"/>
     <use xlink:href="#mefd3d76ebc" x="817.061538" y="140.134737" style="fill: #1f77b4; stroke: #1f77b4"/>
     <use xlink:href="#mefd3d76ebc" x="835.271329" y="108.303158" style="fill: #1f77b4; stroke: #1f77b4"/>
     <use xlink:href="#mefd3d76ebc" x="853.481119" y="150.745263" style="fill: #1f77b4; stroke: #1f77b4"/>
     <use xlink:href="#mefd3d76ebc" x="871.690909" y="87.082105" style="fill: #1f77b4; stroke: #1f77b4"/>
    </g>
   </g>
   <g id="patch_3">
    <path d="M 126 256.32 
L 126 34.56 
" style="fill: none; stroke: #000000; stroke-width: 0.8; stroke-linejoin: miter; stroke-linecap: square"/>
   </g>
   <g id="patch_4">
    <path d="M 907.2 256.32 
L 907.2 34.56 
" style="fill: none; stroke: #000000; stroke-width: 0.8; stroke-linejoin: miter; stroke-linecap: square"/>
   </g>
   <g id="patch_5">
    <path d="M 126 256.32 
L 907.2 256.32 
" style="fill: none; stroke: #000000; stroke-width: 0.8; stroke-linejoin: miter; stroke-linecap: square"/>
   </g>
   <g id="patch_6">
    <path d="M 126 34.56 
L 907.2 34.56 
" style="fill: none; stroke: #000000; stroke-width: 0.8; stroke-linejoin: miter; stroke-linecap: square"/>
   </g>
  </g>
 </g>
 <defs>
  <clipPath id="pb6b08fd445">
   <rect x="126" y="34.56" width="781.2" height="221.76"/>
  </clipPath>
 </defs>
</svg>
